<svg width="40" height="40" viewBox="0 0 40 40" fill="none" xmlns="http://www.w3.org/2000/svg">
<circle cx="20" cy="20" r="20" fill="#131313"/>
<path d="M23.3998 17.8801L18.8098 13.2901C18.6224 13.1038 18.369 12.9993 18.1048 12.9993C17.8406 12.9993 17.5872 13.1038 17.3998 13.2901C17.3061 13.383 17.2317 13.4936 17.1809 13.6155C17.1301 13.7373 17.104 13.868 17.104 14.0001C17.104 14.1321 17.1301 14.2628 17.1809 14.3846C17.2317 14.5065 17.3061 14.6171 17.3998 14.7101L21.9998 19.2901C22.0935 19.383 22.1679 19.4936 22.2187 19.6155C22.2695 19.7373 22.2956 19.868 22.2956 20.0001C22.2956 20.1321 22.2695 20.2628 22.2187 20.3846C22.1679 20.5065 22.0935 20.6171 21.9998 20.7101L17.3998 25.2901C17.2115 25.477 17.1052 25.7312 17.1042 25.9965C17.1033 26.2619 17.2078 26.5168 17.3948 26.7051C17.5818 26.8934 17.8359 26.9997 18.1013 27.0006C18.3666 27.0016 18.6215 26.897 18.8098 26.7101L23.3998 22.1201C23.9616 21.5576 24.2772 20.7951 24.2772 20.0001C24.2772 19.2051 23.9616 18.4426 23.3998 17.8801Z" fill="#7B7B7B"/>
</svg>
